<svg width="90" height="81" viewBox="0 0 90 81" fill="none" xmlns="http://www.w3.org/2000/svg">
<g filter="url(#filter0_f)">
<path d="M16.4862 5.16772L77.667 8.96983C81.7125 9.22123 84.7994 12.717 84.548 16.7627L82.3249 52.5349C82.0735 56.5804 78.5777 59.6673 74.532 59.4159L36.2292 57.0355L19.7467 71.5893C19.122 72.1409 18.3165 72.4043 17.5167 72.3546C17.1207 72.3299 16.726 72.2285 16.3556 72.0474C15.2369 71.5001 14.5574 70.3331 14.6346 69.0897L15.464 55.7448L13.3515 55.6135C9.30605 55.3621 6.21915 51.8664 6.47057 47.8206L8.69365 12.0484C8.9448 8.00295 12.4405 4.91629 16.4862 5.16772ZM12.6175 48.2029C12.5768 48.8587 13.0772 49.4255 13.733 49.4663L18.9183 49.7885C20.5358 49.889 21.7809 51.2212 21.8037 52.8155C21.8074 52.8831 21.2427 62.0513 21.2427 62.0513L33.0962 51.5847C33.1087 51.5737 33.1216 51.5635 33.134 51.5525C33.1804 51.5125 33.2242 51.4779 33.2655 51.447C33.836 51.0063 34.5607 50.7604 35.3363 50.8086L74.9141 53.2681C75.5701 53.3089 76.1367 52.8084 76.1774 52.1526L78.4005 16.3804C78.4413 15.7243 77.9408 15.1578 77.285 15.117L16.104 11.3149C15.4482 11.2742 14.8814 11.7746 14.8406 12.4304L12.6175 48.2029Z" fill="white"/>
<path d="M45.6969 29.2231C47.3935 29.3285 48.6849 30.7911 48.5795 32.4877C48.4741 34.1843 47.0115 35.4757 45.3149 35.3703C43.618 35.2648 42.3268 33.8023 42.4323 32.1056C42.5377 30.409 44.0003 29.1176 45.6969 29.2231Z" fill="white"/>
<path d="M59.9821 30.1098C61.6784 30.2152 62.9701 31.6778 62.8647 33.3744C62.7592 35.071 61.2964 36.3624 59.6 36.257C57.9032 36.1515 56.612 34.689 56.7174 32.9924C56.8229 31.2958 58.2852 30.0043 59.9821 30.1098Z" fill="white"/>
<path d="M31.1334 28.3207C32.8298 28.4261 34.1215 29.8887 34.016 31.5853C33.9106 33.2819 32.4478 34.5733 30.7514 34.4679C29.0545 34.3625 27.7634 32.8999 27.8688 31.2033C27.9742 29.5067 29.4366 28.2153 31.1334 28.3207Z" fill="white"/>
</g>
<defs>
<filter id="filter0_f" x="0.994141" y="0.710938" width="88.0096" height="79.5786" filterUnits="userSpaceOnUse" color-interpolation-filters="sRGB">
<feFlood flood-opacity="0" result="BackgroundImageFix"/>
<feBlend mode="normal" in="SourceGraphic" in2="BackgroundImageFix" result="shape"/>
<feGaussianBlur stdDeviation="2" result="effect1_foregroundBlur"/>
</filter>
</defs>
</svg>
