<svg width="32" height="37" viewBox="0 0 32 37" fill="none" xmlns="http://www.w3.org/2000/svg">
<path d="M31.4708 10.039L31.4696 10.0103C31.4535 9.65485 31.4428 9.27885 31.4363 8.8605C31.4061 6.82041 29.7844 5.1329 27.744 5.01885C23.4899 4.78145 20.199 3.39429 17.3872 0.653565L17.3632 0.6307C16.446 -0.210233 15.0625 -0.210233 14.1451 0.6307L14.1211 0.653565C11.3093 3.39429 8.01835 4.78145 3.76428 5.01913C1.7242 5.1329 0.102175 6.82041 0.0719701 8.86078C0.0657597 9.27631 0.0547505 9.65231 0.0386601 10.0103L0.0369665 10.0772C-0.0457436 14.4151 -0.148496 19.8138 1.65758 24.714C2.65066 27.4087 4.15469 29.7512 6.12759 31.6766C8.3746 33.8694 11.3177 35.6103 14.8751 36.8507C14.9908 36.891 15.1111 36.9238 15.2336 36.9483C15.4064 36.9828 15.5803 37 15.7541 37C15.928 37 16.1022 36.9828 16.2747 36.9483C16.3972 36.9238 16.5183 36.8908 16.6346 36.8501C20.1877 35.6075 23.1278 33.8658 25.3728 31.6732C27.3449 29.7472 28.8489 27.4042 29.8428 24.7089C31.6557 19.794 31.5532 14.3851 31.4708 10.039ZM27.8058 23.9578C25.901 29.1225 22.0125 32.6694 15.9182 34.8007C15.8964 34.808 15.8733 34.8145 15.8493 34.8193C15.7863 34.8318 15.7222 34.8318 15.6585 34.8191C15.6347 34.8143 15.6116 34.808 15.5901 34.8007C9.48935 32.6734 5.5983 29.1284 3.69484 23.9634C2.0302 19.4465 2.12448 14.4907 2.20775 10.1187L2.20832 10.0944C2.22526 9.71865 2.23655 9.32514 2.24276 8.89268C2.25631 7.98682 2.97783 7.23735 3.88539 7.18682C6.29273 7.05245 8.40763 6.58724 10.3509 5.76466C12.2916 4.9432 14.0153 3.78526 15.6198 2.22478C15.7014 2.1559 15.8072 2.15561 15.8885 2.22478C17.4933 3.78526 19.217 4.9432 21.1574 5.76466C23.1007 6.58724 25.2156 7.05245 27.6232 7.18682C28.5307 7.23735 29.2523 7.98682 29.2655 8.89296C29.272 9.32768 29.2833 9.72119 29.3003 10.0944C29.3832 14.4715 29.4753 19.4313 27.8058 23.9578Z" fill="#CFCFCF"/>
<path d="M21.2422 13.3681C21.0462 13.1664 20.7224 13.1661 20.5259 13.3674L13.791 20.2683C13.5955 20.4686 13.2738 20.4695 13.0772 20.2703L11.4468 18.6177C11.2511 18.4193 10.9308 18.4193 10.735 18.6177L9.34652 20.0247C9.1544 20.2194 9.15327 20.5313 9.34417 20.7272C10.4371 21.8489 12.3 23.8055 13.0776 24.6236C13.2735 24.8297 13.5967 24.8333 13.7946 24.6292C15.2018 23.1784 20.3698 17.8518 22.6595 15.5222C22.8502 15.3281 22.8483 15.0203 22.6587 14.8252L21.2422 13.3681Z" fill="#019529"/>
</svg>
